<mxfile host="app.diagrams.net" agent="Mozilla/5.0 (Windows NT 10.0; Win64; x64; rv:134.0) Gecko/20100101 Firefox/134.0" version="26.0.9">
  <diagram name="Page-1" id="Rw24wc692gWnweZTF4E5">
    <mxGraphModel dx="2124" dy="803" grid="1" gridSize="10" guides="1" tooltips="1" connect="1" arrows="1" fold="1" page="1" pageScale="1" pageWidth="850" pageHeight="1100" math="0" shadow="0">
      <root>
        <mxCell id="0" />
        <mxCell id="1" parent="0" />
        <mxCell id="J-itHR7jxSovxujyacVk-6" style="edgeStyle=orthogonalEdgeStyle;rounded=0;orthogonalLoop=1;jettySize=auto;html=1;" parent="1" source="J-itHR7jxSovxujyacVk-5" edge="1">
          <mxGeometry relative="1" as="geometry">
            <mxPoint x="460" y="390" as="targetPoint" />
          </mxGeometry>
        </mxCell>
        <mxCell id="J-itHR7jxSovxujyacVk-13" value="" style="edgeStyle=orthogonalEdgeStyle;rounded=0;orthogonalLoop=1;jettySize=auto;html=1;" parent="1" source="J-itHR7jxSovxujyacVk-5" target="J-itHR7jxSovxujyacVk-12" edge="1">
          <mxGeometry relative="1" as="geometry" />
        </mxCell>
        <mxCell id="J-itHR7jxSovxujyacVk-5" value="aiTurn(board&amp;amp;)" style="rounded=0;whiteSpace=wrap;html=1;" parent="1" vertex="1">
          <mxGeometry x="400" y="460" width="120" height="60" as="geometry" />
        </mxCell>
        <mxCell id="J-itHR7jxSovxujyacVk-9" value="" style="edgeStyle=orthogonalEdgeStyle;rounded=0;orthogonalLoop=1;jettySize=auto;html=1;" parent="1" source="J-itHR7jxSovxujyacVk-7" target="J-itHR7jxSovxujyacVk-8" edge="1">
          <mxGeometry relative="1" as="geometry" />
        </mxCell>
        <mxCell id="J-itHR7jxSovxujyacVk-7" value="minmax(board&amp;amp;)" style="rounded=0;whiteSpace=wrap;html=1;" parent="1" vertex="1">
          <mxGeometry x="400" y="330" width="120" height="60" as="geometry" />
        </mxCell>
        <mxCell id="J-itHR7jxSovxujyacVk-10" style="edgeStyle=orthogonalEdgeStyle;rounded=0;orthogonalLoop=1;jettySize=auto;html=1;" parent="1" source="J-itHR7jxSovxujyacVk-8" edge="1">
          <mxGeometry relative="1" as="geometry">
            <mxPoint x="460" y="130" as="targetPoint" />
          </mxGeometry>
        </mxCell>
        <mxCell id="J-itHR7jxSovxujyacVk-8" value="evaluatePosition()" style="rounded=0;whiteSpace=wrap;html=1;" parent="1" vertex="1">
          <mxGeometry x="400" y="190" width="120" height="60" as="geometry" />
        </mxCell>
        <mxCell id="J-itHR7jxSovxujyacVk-11" value="evaluatePiece()" style="rounded=0;whiteSpace=wrap;html=1;" parent="1" vertex="1">
          <mxGeometry x="400" y="70" width="120" height="60" as="geometry" />
        </mxCell>
        <mxCell id="k3z-Pd4988fLzejCTU4s-5" value="" style="edgeStyle=orthogonalEdgeStyle;rounded=0;orthogonalLoop=1;jettySize=auto;html=1;" edge="1" parent="1" source="J-itHR7jxSovxujyacVk-12" target="k3z-Pd4988fLzejCTU4s-4">
          <mxGeometry relative="1" as="geometry" />
        </mxCell>
        <mxCell id="J-itHR7jxSovxujyacVk-12" value="updateUI()" style="rounded=0;whiteSpace=wrap;html=1;" parent="1" vertex="1">
          <mxGeometry x="600" y="460" width="120" height="60" as="geometry" />
        </mxCell>
        <mxCell id="J-itHR7jxSovxujyacVk-17" value="" style="edgeStyle=orthogonalEdgeStyle;rounded=0;orthogonalLoop=1;jettySize=auto;html=1;" parent="1" source="J-itHR7jxSovxujyacVk-14" target="J-itHR7jxSovxujyacVk-16" edge="1">
          <mxGeometry relative="1" as="geometry" />
        </mxCell>
        <mxCell id="J-itHR7jxSovxujyacVk-14" value="playerTurn()" style="rounded=0;whiteSpace=wrap;html=1;" parent="1" vertex="1">
          <mxGeometry x="-40" y="460" width="120" height="60" as="geometry" />
        </mxCell>
        <mxCell id="J-itHR7jxSovxujyacVk-16" value="updateUI()" style="rounded=0;whiteSpace=wrap;html=1;" parent="1" vertex="1">
          <mxGeometry x="120" y="460" width="120" height="60" as="geometry" />
        </mxCell>
        <mxCell id="J-itHR7jxSovxujyacVk-19" value="won()" style="rounded=0;whiteSpace=wrap;html=1;" parent="1" vertex="1">
          <mxGeometry x="650" y="200" width="120" height="60" as="geometry" />
        </mxCell>
        <mxCell id="J-itHR7jxSovxujyacVk-20" value="" style="endArrow=classic;html=1;rounded=0;entryX=0.5;entryY=0;entryDx=0;entryDy=0;" parent="1" target="J-itHR7jxSovxujyacVk-19" edge="1">
          <mxGeometry width="50" height="50" relative="1" as="geometry">
            <mxPoint x="330" y="480" as="sourcePoint" />
            <mxPoint x="670" y="190" as="targetPoint" />
            <Array as="points">
              <mxPoint x="330" y="30" />
              <mxPoint x="710" y="30" />
              <mxPoint x="710" y="120" />
            </Array>
          </mxGeometry>
        </mxCell>
        <mxCell id="J-itHR7jxSovxujyacVk-25" value="newGame()" style="rounded=0;whiteSpace=wrap;html=1;" parent="1" vertex="1">
          <mxGeometry x="880" y="110" width="120" height="60" as="geometry" />
        </mxCell>
        <mxCell id="J-itHR7jxSovxujyacVk-26" value="mainMenu()" style="rounded=0;whiteSpace=wrap;html=1;" parent="1" vertex="1">
          <mxGeometry x="880" y="270" width="120" height="60" as="geometry" />
        </mxCell>
        <mxCell id="J-itHR7jxSovxujyacVk-28" value="" style="endArrow=classic;html=1;rounded=0;exitX=1;exitY=0.5;exitDx=0;exitDy=0;entryX=0.5;entryY=1;entryDx=0;entryDy=0;" parent="1" source="J-itHR7jxSovxujyacVk-19" target="J-itHR7jxSovxujyacVk-25" edge="1">
          <mxGeometry width="50" height="50" relative="1" as="geometry">
            <mxPoint x="520" y="420" as="sourcePoint" />
            <mxPoint x="570" y="370" as="targetPoint" />
            <Array as="points">
              <mxPoint x="940" y="230" />
            </Array>
          </mxGeometry>
        </mxCell>
        <mxCell id="J-itHR7jxSovxujyacVk-29" value="" style="endArrow=classic;html=1;rounded=0;exitX=1;exitY=0.5;exitDx=0;exitDy=0;entryX=0.5;entryY=0;entryDx=0;entryDy=0;" parent="1" source="J-itHR7jxSovxujyacVk-19" target="J-itHR7jxSovxujyacVk-26" edge="1">
          <mxGeometry width="50" height="50" relative="1" as="geometry">
            <mxPoint x="520" y="420" as="sourcePoint" />
            <mxPoint x="570" y="370" as="targetPoint" />
            <Array as="points">
              <mxPoint x="940" y="230" />
            </Array>
          </mxGeometry>
        </mxCell>
        <mxCell id="k3z-Pd4988fLzejCTU4s-3" value="" style="edgeStyle=orthogonalEdgeStyle;rounded=0;orthogonalLoop=1;jettySize=auto;html=1;" edge="1" parent="1" source="k3z-Pd4988fLzejCTU4s-1" target="J-itHR7jxSovxujyacVk-5">
          <mxGeometry relative="1" as="geometry" />
        </mxCell>
        <mxCell id="k3z-Pd4988fLzejCTU4s-1" value="ifWon" style="rhombus;whiteSpace=wrap;html=1;" vertex="1" parent="1">
          <mxGeometry x="290" y="450" width="80" height="80" as="geometry" />
        </mxCell>
        <mxCell id="k3z-Pd4988fLzejCTU4s-2" value="" style="endArrow=classic;html=1;rounded=0;exitX=1;exitY=0.5;exitDx=0;exitDy=0;entryX=0;entryY=0.5;entryDx=0;entryDy=0;" edge="1" parent="1" source="J-itHR7jxSovxujyacVk-16" target="k3z-Pd4988fLzejCTU4s-1">
          <mxGeometry width="50" height="50" relative="1" as="geometry">
            <mxPoint x="600" y="420" as="sourcePoint" />
            <mxPoint x="650" y="370" as="targetPoint" />
          </mxGeometry>
        </mxCell>
        <mxCell id="k3z-Pd4988fLzejCTU4s-4" value="ifWon" style="rhombus;whiteSpace=wrap;html=1;" vertex="1" parent="1">
          <mxGeometry x="620" y="560" width="80" height="80" as="geometry" />
        </mxCell>
        <mxCell id="k3z-Pd4988fLzejCTU4s-6" value="" style="endArrow=classic;html=1;rounded=0;exitX=0;exitY=0.5;exitDx=0;exitDy=0;entryX=0.425;entryY=1.033;entryDx=0;entryDy=0;entryPerimeter=0;" edge="1" parent="1" source="k3z-Pd4988fLzejCTU4s-4" target="J-itHR7jxSovxujyacVk-14">
          <mxGeometry width="50" height="50" relative="1" as="geometry">
            <mxPoint x="490" y="500" as="sourcePoint" />
            <mxPoint x="170" y="600" as="targetPoint" />
            <Array as="points">
              <mxPoint x="11" y="600" />
            </Array>
          </mxGeometry>
        </mxCell>
        <mxCell id="k3z-Pd4988fLzejCTU4s-7" value="" style="endArrow=classic;html=1;rounded=0;exitX=1;exitY=0.5;exitDx=0;exitDy=0;entryX=0.5;entryY=1;entryDx=0;entryDy=0;" edge="1" parent="1" source="k3z-Pd4988fLzejCTU4s-4" target="J-itHR7jxSovxujyacVk-19">
          <mxGeometry width="50" height="50" relative="1" as="geometry">
            <mxPoint x="490" y="500" as="sourcePoint" />
            <mxPoint x="540" y="450" as="targetPoint" />
            <Array as="points">
              <mxPoint x="840" y="600" />
              <mxPoint x="840" y="400" />
              <mxPoint x="710" y="400" />
            </Array>
          </mxGeometry>
        </mxCell>
      </root>
    </mxGraphModel>
  </diagram>
</mxfile>
